<svg width="100" height="98" viewBox="0 0 100 98" fill="none" xmlns="http://www.w3.org/2000/svg">
<path d="M60.4911 17.1875C61.4773 17.1875 62.2768 16.388 62.2768 15.4018C62.2768 14.4156 61.4773 13.6161 60.4911 13.6161C59.5049 13.6161 58.7054 14.4156 58.7054 15.4018C58.7054 16.388 59.5049 17.1875 60.4911 17.1875Z" fill="white"/>
<path d="M54.6875 17.1875C55.6737 17.1875 56.4732 16.388 56.4732 15.4018C56.4732 14.4156 55.6737 13.6161 54.6875 13.6161C53.7013 13.6161 52.9018 14.4156 52.9018 15.4018C52.9018 16.388 53.7013 17.1875 54.6875 17.1875Z" fill="white"/>
<path d="M16.0714 10.4911C17.8572 8.70535 20.3125 7.58928 22.9911 7.58928C27.2322 7.58928 34.1518 12.9464 37.0536 15.4018C37.7232 15.8482 38.1697 16.2946 38.3929 16.5179L39.5089 17.4107L38.3929 18.3036C38.1697 18.5268 37.7232 18.75 37.0536 19.4196C34.1518 21.875 27.2322 27.2321 22.9911 27.2321C20.3125 27.2321 17.8572 26.1161 16.0714 24.3304C14.2857 22.5446 13.1696 20.0893 13.1696 17.4107C13.1696 14.7321 14.2857 12.2768 16.0714 10.4911ZM17.8572 12.2768C16.5179 13.6161 15.625 15.4018 15.625 17.4107C15.625 19.4196 16.2947 21.2054 17.8572 22.5446C19.1964 23.8839 20.9822 24.7768 22.9911 24.7768C26.1161 24.7768 32.3661 20.0893 35.4911 17.4107C32.3661 14.7321 26.1161 10.0446 22.9911 10.0446C21.2054 10.0446 19.1964 10.9375 17.8572 12.2768Z" fill="white"/>
<path d="M20.5357 20.0893C19.8661 19.4197 19.4196 18.5268 19.4196 17.4107C19.4196 15.4018 20.9821 13.8393 23.2143 13.8393C25.2232 13.8393 26.7857 15.4018 26.7857 17.6339C26.7857 19.6429 25.2232 21.2054 22.9911 21.2054C22.0982 21.2054 21.2054 20.7589 20.5357 20.0893ZM20.3125 17.4107C20.3125 18.0804 20.5357 18.9732 21.2054 19.4197C21.6518 19.8661 22.5446 20.3125 23.2143 20.3125C24.7768 20.3125 26.1161 18.9732 26.1161 17.4107C26.1161 15.8482 24.7768 14.5089 23.2143 14.5089C21.4286 14.5089 20.3125 15.8482 20.3125 17.4107Z" fill="white"/>
<path d="M15.8482 29.0178C15.1786 29.6875 9.59822 34.5982 6.25001 34.5982C2.67858 34.5982 0 31.6964 0 28.3482C0 26.5625 0.66965 25 1.78572 23.8839C2.90179 22.7678 4.46429 22.0982 6.25001 22.0982C9.37501 22.0982 15.1786 27.0089 15.8482 27.6786L16.7411 28.5714L15.8482 29.0178ZM13.3929 28.125C11.1607 26.3393 7.81251 23.8839 6.25001 23.8839C5.13394 23.8839 4.01786 24.3303 3.34821 25C2.45536 25.6696 2.23214 26.7857 2.23214 27.9018C2.23214 30.1339 4.01786 31.9196 6.25001 32.1428C7.81251 32.1428 11.1607 29.9107 13.3929 28.125Z" fill="white"/>
<path d="M6.25002 25.6696C7.5893 25.6696 8.70535 26.7857 8.70535 28.125C8.70535 29.4643 7.5893 30.5804 6.25002 30.5804C4.91073 30.5804 3.79465 29.4643 3.79465 28.125C3.79465 26.7857 4.91073 25.6696 6.25002 25.6696ZM6.25002 26.5625C5.35716 26.5625 4.68752 27.2321 4.68752 28.125C4.68752 29.0179 5.35716 29.6875 6.25002 29.6875C7.14288 29.6875 7.81251 29.0179 7.81251 28.125C7.81251 27.2321 7.14288 26.5625 6.25002 26.5625Z" fill="white"/>
<path d="M3.125 6.25C3.125 2.67857 6.02679 0 9.37501 0C12.5 0 18.3036 4.91071 18.9732 5.58036L19.8661 6.47321L18.9732 6.91964C18.3036 7.58929 12.7232 12.5 9.37501 12.5C6.02679 12.5 3.125 9.59821 3.125 6.25ZM5.35714 6.25C5.35714 8.48214 7.14286 10.4911 9.37501 10.4911C10.9375 10.4911 14.2857 8.25893 16.5179 6.47321C14.2857 4.6875 10.9375 2.23214 9.37501 2.23214C7.14286 2.00893 5.35714 3.79464 5.35714 6.25Z" fill="white"/>
<path d="M7.8125 7.81251C7.36607 7.36608 7.14285 6.69644 7.14285 6.0268C7.14285 5.35716 7.36607 4.68751 7.8125 4.24108C8.25893 3.79466 8.92858 3.57144 9.59822 3.57144C10.2679 3.57144 10.9375 3.79466 11.3839 4.24108C11.8304 4.68751 12.0536 5.35716 12.0536 6.0268C12.0536 6.69644 11.8304 7.36608 11.3839 7.81251C10.7143 8.25894 10.0446 8.48216 9.375 8.48216C8.70535 8.48216 8.25893 8.25894 7.8125 7.81251ZM7.8125 6.25001C7.8125 6.69644 8.03571 7.14287 8.25892 7.36608C8.48214 7.5893 8.92857 7.81251 9.375 7.81251C9.82142 7.81251 10.2679 7.5893 10.4911 7.36608C10.7143 7.14287 10.9375 6.69644 10.9375 6.25001C10.9375 5.80358 10.7143 5.35716 10.4911 5.13394C10.2679 4.91073 9.82142 4.68751 9.375 4.68751C8.92857 4.68751 8.48214 4.91073 8.25892 5.13394C8.03571 5.35716 7.8125 5.80358 7.8125 6.25001Z" fill="white"/>
<path d="M89.0625 47.3214V51.1161H100C99.5536 52.9018 98.6607 54.4643 97.5446 55.8036C95.5357 58.0357 92.6339 59.375 89.5089 59.375H87.5V97.5447H84.1518V56.0268H89.5089C91.7411 56.0268 93.75 55.1339 95.0893 53.5714C95.3125 53.3482 95.5357 53.125 95.7589 52.9018H87.5V45.7589H96.6518C95.5357 43.0804 92.6339 41.0714 89.2857 41.0714H75.8929C72.5446 41.0714 70.3125 42.4107 69.4197 45.5357C68.3036 48.4375 68.3036 52.0089 68.3036 54.9107V97.5447H64.9554V81.6964C61.8304 81.6964 59.1518 79.4643 59.1518 77.0089C59.1518 75.4464 60.2678 73.8839 61.8303 72.9911C61.3839 72.7679 60.9375 72.3214 60.4911 72.0982C59.5982 71.2054 59.1518 70.3125 59.1518 68.9732C59.1518 67.1875 60.4911 65.625 62.2768 64.7322C60.4911 63.8393 59.1518 62.2768 59.1518 60.4911C59.1518 57.8125 61.8304 55.8036 64.9554 55.8036V54.4643C64.9554 51.3393 64.9554 47.3214 66.0714 43.9732C66.7411 41.9643 67.8571 40.4018 69.1964 39.2857V22.5447C69.1964 19.6429 69.1964 15.8482 68.0804 13.1697C66.9643 10.0447 64.9554 8.70537 61.6072 8.70537H48.2143C45.0893 8.70537 42.1875 10.4911 41.0714 13.1697H50.4464V20.7589H41.7411C41.9643 20.9822 41.9643 21.2054 42.1875 21.4286C43.5268 22.9911 45.7589 23.8839 47.7678 23.8839H53.125V63.3929H52.9018C53.7946 64.2857 54.2411 65.1786 54.2411 66.5179C54.2411 68.3036 52.9018 69.8661 51.1161 70.7589C51.7857 70.9822 52.2322 71.4286 52.6786 71.6518C53.5714 72.5447 54.2411 73.6607 54.2411 74.7768C54.2411 76.3393 53.125 77.9018 51.5625 78.7947C53.125 79.6875 54.2411 81.0268 54.2411 82.8125C54.2411 85.2679 51.7857 87.2768 48.8839 87.5V97.0982H45.5357V58.0357C45.5357 55.1339 45.5357 51.3393 44.4196 48.6607C43.3036 45.5357 41.2946 44.1964 37.9464 44.1964H24.5536C20.9821 44.1964 17.8572 46.6518 16.9643 49.7768H25.4464V52.6786H16.7411C16.9643 54.2411 17.6339 55.5804 18.75 56.9197C20.0893 58.4822 22.3214 59.375 24.3303 59.375H29.6875V97.5447H26.3393V62.7232H24.3303C21.2053 62.7232 18.3036 61.3839 16.2946 59.1518C14.2857 56.9197 13.1697 53.7947 13.6161 50.8929C14.0625 45.3125 18.9732 41.0714 24.7768 41.0714H38.1697C43.0804 41.0714 46.2053 43.3036 47.7678 47.7679C48.8839 51.1161 48.8839 55.1339 48.8839 58.2589V62.5C49.1071 62.5 49.5536 62.5 49.7768 62.7232V27.6786H47.7678C44.6428 27.6786 41.7411 26.3393 39.7321 24.1072C38.6161 22.7679 37.7232 21.2054 37.2768 19.6429H48.6607V15.4018H37.0536C37.7232 10.0447 42.4107 5.80359 48.2143 5.80359H61.6072C66.5179 5.80359 69.6428 8.03573 71.2053 12.5C72.3214 15.8482 72.3214 19.8661 72.3214 22.9911V26.5625C74.7768 26.7857 76.7857 28.5714 76.7857 30.5804C76.7857 32.1429 75.6696 33.4822 74.1071 34.1518C75.6696 34.8214 76.7857 36.1607 76.7857 37.7232H88.8393C94.4196 37.7232 99.3304 41.9643 100 47.3214H89.0625V47.3214ZM48.8839 80.1339V79.2411V87.0536V86.1607C51.1161 86.1607 53.125 84.8214 53.125 83.2589C53.125 81.6964 51.1161 80.1339 48.8839 80.1339ZM48.8839 72.3214V71.6518V71.4286V79.2411V78.5714V78.3482C51.1161 78.3482 53.125 77.0089 53.125 75.4464C53.125 73.6607 51.1161 72.3214 48.8839 72.3214ZM48.8839 64.0625V63.1697V70.9822V70.7589V70.0893C51.1161 70.0893 53.125 68.75 53.125 67.1875C53.125 65.625 51.1161 64.0625 48.8839 64.0625ZM65.1786 72.9911V73.6607V73.8839C62.9464 73.8839 60.9375 75.2232 60.9375 76.7857C60.9375 78.3482 62.7232 79.6875 65.1786 79.6875V80.5804V72.9911ZM65.1786 65.1786V65.4018V66.0714C62.9464 66.0714 60.9375 67.4107 60.9375 68.9732C60.9375 70.5357 62.7232 71.875 65.1786 71.875V72.0982V72.7679V65.1786ZM65.1786 56.9197V57.8125C62.9464 57.8125 60.9375 59.1518 60.9375 60.7143C60.9375 62.2768 62.7232 63.6161 65.1786 63.6161V64.2857V64.5089V56.9197ZM72.0982 33.9286V33.7054V33.0357C74.1071 33.0357 75.6696 31.9197 75.6696 30.5804C75.6696 29.2411 74.1071 28.125 72.0982 28.125V27.4554V33.9286ZM75.6696 37.5C75.6696 36.1607 74.1071 35.0447 72.0982 35.0447V34.5982V34.375V38.3929C73.2143 37.9464 74.3303 37.7232 75.6696 37.5C75.6696 37.7232 75.6696 37.7232 75.6696 37.5Z" fill="white"/>
<path d="M77.4553 48.8839C78.4416 48.8839 79.2411 48.0844 79.2411 47.0982C79.2411 46.112 78.4416 45.3125 77.4553 45.3125C76.4691 45.3125 75.6696 46.112 75.6696 47.0982C75.6696 48.0844 76.4691 48.8839 77.4553 48.8839Z" fill="white"/>
<path d="M83.259 48.8839C84.2452 48.8839 85.0447 48.0844 85.0447 47.0982C85.0447 46.112 84.2452 45.3125 83.259 45.3125C82.2727 45.3125 81.4732 46.112 81.4732 47.0982C81.4732 48.0844 82.2727 48.8839 83.259 48.8839Z" fill="white"/>
<path d="M37.0536 52.2322C38.0398 52.2322 38.8393 51.4327 38.8393 50.4464C38.8393 49.4602 38.0398 48.6607 37.0536 48.6607C36.0674 48.6607 35.2679 49.4602 35.2679 50.4464C35.2679 51.4327 36.0674 52.2322 37.0536 52.2322Z" fill="white"/>
<path d="M31.25 52.2322C32.2362 52.2322 33.0357 51.4327 33.0357 50.4464C33.0357 49.4602 32.2362 48.6607 31.25 48.6607C30.2638 48.6607 29.4643 49.4602 29.4643 50.4464C29.4643 51.4327 30.2638 52.2322 31.25 52.2322Z" fill="white"/>
</svg>
