<svg version="1.1" id="s1481824568305" xmlns:svgjs="http://svgjs.com/svgjs"
	 xmlns="http://www.w3.org/2000/svg" xmlns:xlink="http://www.w3.org/1999/xlink" x="0px" y="0px" viewBox="0 0 360 275"
	 style="enable-background:new 0 0 360 275;" xml:space="preserve">
<style type="text/css">
	.st0{fill:#E74C3C;}
	.st1{fill:#FFFFFF;}
</style>
<rect id="SvgjsRect1037" class="st0" width="360" height="275"/>
<g id="SvgjsG1043" transform="matrix(1,0,0,1,0,88.66720581054688)">
	<g id="SvgjsUse1042">
		<g>
			<circle class="st1" cx="184.6" cy="8.1" r="0.8"/>
			<circle class="st1" cx="182" cy="8.1" r="0.8"/>
			<path class="st1" d="M164.7,5.9c0.8-0.8,1.9-1.3,3.1-1.3c0,0,0,0,0,0c1.9,0,5,2.4,6.3,3.5c0.3,0.2,0.5,0.4,0.6,0.5l0.5,0.4
				l-0.5,0.4c-0.1,0.1-0.3,0.2-0.6,0.5c-1.3,1.1-4.4,3.5-6.3,3.5c0,0,0,0,0,0c-1.2,0-2.3-0.5-3.1-1.3c-0.8-0.8-1.3-1.9-1.3-3.1
				C163.4,7.8,163.9,6.7,164.7,5.9z M165.5,6.7c-0.6,0.6-1,1.4-1,2.3c0,0.9,0.3,1.7,1,2.3c0.6,0.6,1.4,1,2.3,1c0,0,0,0,0,0
				c1.4,0,4.2-2.1,5.6-3.3c-1.4-1.2-4.2-3.3-5.6-3.3c0,0,0,0,0,0C167,5.7,166.1,6.1,165.5,6.7z"/>
			<path class="st1" d="M166.7,10.2c-0.3-0.3-0.5-0.7-0.5-1.2c0-0.9,0.7-1.6,1.7-1.6c0,0,0,0,0,0c0.9,0,1.6,0.7,1.6,1.7
				c0,0.9-0.7,1.6-1.7,1.6c0,0,0,0,0,0C167.4,10.7,167,10.5,166.7,10.2z M166.6,9c0,0.3,0.1,0.7,0.4,0.9c0.2,0.2,0.6,0.4,0.9,0.4
				c0,0,0,0,0,0c0.7,0,1.3-0.6,1.3-1.3c0-0.7-0.6-1.3-1.3-1.3c0,0,0,0,0,0C167.1,7.7,166.6,8.3,166.6,9z"/>
			<path class="st1" d="M164.6,14.2c-0.3,0.3-2.8,2.5-4.3,2.5c0,0,0,0,0,0c-1.6,0-2.8-1.3-2.8-2.8c0-0.8,0.3-1.5,0.8-2
				c0.5-0.5,1.2-0.8,2-0.8c0,0,0,0,0,0c1.4,0,4,2.2,4.3,2.5l0.4,0.4L164.6,14.2z M163.5,13.8c-1-0.8-2.5-1.9-3.2-1.9c0,0,0,0,0,0
				c-0.5,0-1,0.2-1.3,0.5c-0.4,0.3-0.5,0.8-0.5,1.3c0,1,0.8,1.8,1.8,1.9c0,0,0,0,0,0C161,15.6,162.5,14.6,163.5,13.8z"/>
			<path class="st1" d="M160.3,12.7c0.6,0,1.1,0.5,1.1,1.1c0,0.6-0.5,1.1-1.1,1.1c0,0,0,0,0,0c-0.6,0-1.1-0.5-1.1-1.1
				C159.2,13.2,159.7,12.7,160.3,12.7C160.3,12.7,160.3,12.7,160.3,12.7z M160.3,13.1C160.3,13.1,160.3,13.1,160.3,13.1
				c-0.4,0-0.7,0.3-0.7,0.7c0,0.4,0.3,0.7,0.7,0.7c0,0,0,0,0,0c0.4,0,0.7-0.3,0.7-0.7C161,13.4,160.7,13.1,160.3,13.1z"/>
			<path class="st1" d="M158.9,4c0-1.6,1.3-2.8,2.8-2.8c0,0,0,0,0,0c1.4,0,4,2.2,4.3,2.5l0.4,0.4L166,4.3c-0.3,0.3-2.8,2.5-4.3,2.5
				c0,0,0,0,0,0C160.2,6.8,158.9,5.5,158.9,4z M159.9,4c0,1,0.8,1.9,1.8,1.9c0,0,0,0,0,0c0.7,0,2.2-1,3.2-1.8
				c-1-0.8-2.5-1.9-3.2-1.9c0,0,0,0,0,0C160.7,2.1,159.9,2.9,159.9,4z"/>
			<path class="st1" d="M161,4.7c-0.2-0.2-0.3-0.5-0.3-0.8c0-0.3,0.1-0.6,0.3-0.8c0.2-0.2,0.5-0.3,0.8-0.3c0,0,0,0,0,0
				c0.3,0,0.6,0.1,0.8,0.3c0.2,0.2,0.3,0.5,0.3,0.8s-0.1,0.6-0.3,0.8C162.3,4.9,162,5,161.7,5c0,0,0,0,0,0
				C161.4,5,161.2,4.9,161,4.7z M161,4c0,0.2,0.1,0.4,0.2,0.5c0.1,0.1,0.3,0.2,0.5,0.2c0,0,0,0,0,0c0.2,0,0.4-0.1,0.5-0.2
				c0.1-0.1,0.2-0.3,0.2-0.5c0-0.2-0.1-0.4-0.2-0.5c-0.1-0.1-0.3-0.2-0.5-0.2c0,0,0,0,0,0c-0.2,0-0.4,0.1-0.5,0.2
				C161.1,3.6,161,3.8,161,4z"/>
			<path class="st1" d="M197.4,22.4v1.7h4.9c-0.2,0.8-0.6,1.5-1.1,2.1c-0.9,1-2.2,1.6-3.6,1.6h-0.9v17.1h-1.5V26.3h2.4
				c1,0,1.9-0.4,2.5-1.1c0.1-0.1,0.2-0.2,0.3-0.3h-3.7v-3.2h4.1c-0.5-1.2-1.8-2.1-3.3-2.1h-6c-1.5,0-2.5,0.6-2.9,2
				c-0.5,1.3-0.5,2.9-0.5,4.2v19.1h-1.5v-7.1c-1.4,0-2.6-1-2.6-2.1c0-0.7,0.5-1.4,1.2-1.8c-0.2-0.1-0.4-0.3-0.6-0.4
				c-0.4-0.4-0.6-0.8-0.6-1.4c0-0.8,0.6-1.5,1.4-1.9c-0.8-0.4-1.4-1.1-1.4-1.9c0-1.2,1.2-2.1,2.6-2.1v-0.6c0-1.4,0-3.2,0.5-4.7
				c0.3-0.9,0.8-1.6,1.4-2.1v-7.5c0-1.3,0-3-0.5-4.2v0c-0.5-1.4-1.4-2-2.9-2h-6c-1.4,0-2.7,0.8-3.2,2h4.2v3.4h-3.9
				c0.1,0.1,0.1,0.2,0.2,0.3c0.6,0.7,1.6,1.1,2.5,1.1h2.4v17.7h-0.1c0.4,0.4,0.6,0.8,0.6,1.4c0,0.8-0.6,1.5-1.4,1.9
				c0.3,0.1,0.5,0.3,0.7,0.4c0.4,0.4,0.7,0.9,0.7,1.4c0,0.7-0.5,1.4-1.2,1.8c0.7,0.4,1.2,1,1.2,1.8c0,1.1-1.1,2-2.4,2.1v4.3h-1.5
				V27.2c0-1.3,0-3-0.5-4.2c-0.5-1.4-1.4-2-2.9-2h-6c-1.6,0-3,1.1-3.4,2.5h3.8v1.3h-3.9c0.1,0.7,0.4,1.3,0.9,1.9
				c0.6,0.7,1.6,1.1,2.5,1.1h2.4v17.1h-1.5V29.3h-0.9c-1.4,0-2.7-0.6-3.6-1.6c-0.9-1-1.4-2.4-1.2-3.7c0.2-2.5,2.4-4.4,5-4.4h6
				c2.2,0,3.6,1,4.3,3c0.5,1.5,0.5,3.3,0.5,4.7v1.9c0.1,0,0.3,0,0.4,0.1V13.6h-0.9c-1.4,0-2.7-0.6-3.6-1.6c-0.5-0.6-0.9-1.3-1.1-2
				h5.1V8.1h-5.2c0.3-2.4,2.4-4.3,5-4.3h6c2.2,0,3.6,1,4.3,3v0c0.5,1.5,0.5,3.3,0.5,4.7v1.6c1.1,0.1,2,0.9,2,1.8
				c0,0.7-0.5,1.3-1.2,1.6c0.7,0.3,1.2,0.9,1.2,1.6c0,0,0,0,0,0h5.4c2.5,0,4.7,1.9,5,4.3H197.4L197.4,22.4z M179.4,37.1L179.4,37.1
				v-0.4l0,0v3.5l0,0v-0.4c1,0,1.9-0.6,1.9-1.3S180.4,37.1,179.4,37.1z M179.4,33.6v-0.3v-0.1l0,0v3.5l0,0v-0.3v-0.1
				c1,0,1.9-0.6,1.9-1.3C181.3,34.2,180.4,33.6,179.4,33.6z M179.4,29.9v-0.4l0,0v3.5l0,0v-0.1v-0.3c1,0,1.9-0.6,1.9-1.3
				S180.4,29.9,179.4,29.9z M186.7,33.9L186.7,33.9v0.3v0.1c-1,0-1.9,0.6-1.9,1.3s0.8,1.3,1.9,1.3v0.4l0,0V33.9z M186.7,30.4
				L186.7,30.4v0.1v0.3c-1,0-1.9,0.6-1.9,1.3s0.8,1.3,1.9,1.3v0.1v0.3l0,0V30.4z M186.7,26.7L186.7,26.7v0.4c-1,0-1.9,0.6-1.9,1.3
				c0,0.7,0.8,1.3,1.9,1.3V30v0.1l0,0V26.7z M189.8,16.4L189.8,16.4v-0.1V16c0.9,0,1.6-0.5,1.6-1.1s-0.7-1.1-1.6-1.1v-0.3l0,0V16.4z
				 M191.4,18c0-0.6-0.7-1.1-1.6-1.1v-0.2v-0.1l0,0v1.8C190.3,18.2,190.8,18.1,191.4,18C191.4,18.1,191.4,18.1,191.4,18z"/>
			<circle class="st1" cx="192.2" cy="22.3" r="0.8"/>
			<circle class="st1" cx="194.8" cy="22.3" r="0.8"/>
			<circle class="st1" cx="174.1" cy="23.8" r="0.8"/>
			<circle class="st1" cx="171.5" cy="23.8" r="0.8"/>
		</g>
	</g>
</g>
</svg>
